Coordinates
version=1
nRows=11
nColumns=42
inDegrees=yes

Units are S.I. units (second, meters, Newtons, ...)
If the header above contains a line with 'inDegrees', this indicates whether rotational values are in degrees (yes) or radians (no).

endheader
time	pelvis_tilt	pelvis_list	pelvis_rotation	pelvis_tx	pelvis_ty	pelvis_tz	hip_flexion_r	hip_adduction_r	hip_rotation_r	knee_angle_r	knee_adduction_r	knee_angle_r_beta	ankle_angle_r	subtalar_angle_r	mtp_angle_r	hip_flexion_l	hip_adduction_l	hip_rotation_l	knee_angle_l	knee_adduction_l	knee_angle_l_beta	ankle_angle_l	subtalar_angle_l	mtp_angle_l	lumbar_extension	lumbar_bending	lumbar_rotation	arm_flex_r	arm_add_r	arm_rot_r	elbow_flex_r	pro_sup_r	wrist_flex_r	wrist_dev_r	arm_flex_l	arm_add_l	arm_rot_l	elbow_flex_l	pro_sup_l	wrist_flex_l	wrist_dev_l
      0.00000000	     14.01827523	      0.78896972	      3.20828433	     -1.12886648	      0.84906431	     -0.27089653	     14.16197264	     -0.42405486	    -15.43195130	     22.09663020	     -2.34354273	      0.38565895	     14.34448641	    -11.07210109	     -9.37002455	    -23.19884590	      0.34677309	    -20.73062753	      7.79849973	      4.08227065	      0.13610950	     24.77221832	      6.38038488	     -9.37002455	    -28.49735051	      0.06867768	     -0.08498094	    -12.47743011	     -4.84901796	    -12.34520286	     29.12944045	     90.00000001	      0.00000000	      0.00000000	     26.31835845	    -10.29849973	     -0.20546586	     47.26717421	     90.00000001	      0.00000000	      0.00000000
      0.01000000	     13.79642051	      1.10069444	      3.40120336	     -1.11884402	      0.84700147	     -0.27095093	     14.55503467	     -0.88555691	    -16.19132291	     19.91595034	     -2.04577702	      0.34759891	     14.16248779	     -9.60262716	     -9.32702724	    -23.51836871	      0.68978284	    -20.69107908	      8.12790680	      3.60854354	      0.14185873	     25.17115224	      6.56990560	     -9.32702724	    -28.27921298	     -0.13244053	     -0.31465269	    -13.05249032	     -4.75406679	    -12.26365603	     29.01882744	     90.00000001	      0.00000000	      0.00000000	     26.89299127	    -10.37069140	      0.13438977	     48.19893837	     90.00000001	      0.00000000	      0.00000000
      0.02000000	     13.95519689	      1.18771785	      3.72281679	     -1.10799848	      0.84535334	     -0.27076681	     14.66296979	     -1.25140350	    -18.83103568	     18.41778654	     -2.04967425	      0.32145102	     14.97579651	     -4.91433580	     -9.13918030	    -24.42260331	      0.50315485	    -20.80283954	      8.38017716	      3.57935637	      0.14626168	     25.59967020	      7.35673179	     -9.13918030	    -28.37541579	     -0.06076989	     -0.48839053	    -13.62396636	     -4.60701780	    -12.38709546	     28.86806309	     90.00000001	      0.00000000	      0.00000000	     27.29770088	    -10.57846343	      1.04477120	     49.32625045	     90.00000001	      0.00000000	      0.00000000
      0.03000000	     13.78855468	      1.46929740	      3.90212500	     -1.09784796	      0.84353685	     -0.27068853	     14.92431489	     -1.70287326	    -19.51779445	     16.81307030	     -1.72562706	      0.29344343	     14.70464682	     -3.76173115	     -9.10950938	    -24.81391443	      0.81440014	    -20.56636354	      8.69923929	      3.07106783	      0.15183037	     25.81222192	      7.55481948	     -9.10950938	    -28.23197269	     -0.22260513	     -0.66708662	    -14.01851762	     -4.49435912	    -12.46826839	     28.71393930	     90.00000001	      0.00000000	      0.00000000	     27.76444623	    -10.60937851	      1.28811226	     50.12996287	     90.00000001	      0.00000000	      0.00000000
      0.04000000	     13.89045140	      1.56724305	      4.25151088	     -1.08696207	      0.84206312	     -0.27041087	     15.09248779	     -2.13436013	    -22.06265682	     16.15814261	     -1.71357602	      0.28201279	     15.31749143	      0.41486647	     -8.95961865	    -25.57230627	      0.62033885	    -20.57779675	      9.10837281	      2.92098017	      0.15897110	     26.05790534	      8.27914267	     -8.95961865	    -28.28152031	     -0.14273803	     -0.85249303	    -14.39126098	     -4.27753251	    -13.05460649	     28.51801510	     90.00000001	      0.00000000	      0.00000000	     28.06679696	    -10.80056794	      2.13906883	     51.05734096	     90.00000001	      0.00000000	      0.00000000
      0.05000000	     13.67929837	      1.69435608	      4.18656852	     -1.07628719	      0.84028320	     -0.26976198	     15.55898908	     -2.37056515	    -22.38772679	     15.73427747	     -1.57553296	      0.27461495	     15.24295319	      0.47004220	     -8.95312399	    -26.03866883	      0.72922914	    -20.51904041	      9.38006392	      2.69970329	      0.16371300	     26.05069003	      8.30333957	     -8.95312399	    -28.00585879	     -0.23092312	     -0.77224964	    -14.72597138	     -4.25006775	    -13.06616521	     28.38992019	     90.00000001	      0.00000000	      0.00000000	     28.36618329	    -10.76732709	      2.16083177	     51.36733140	     90.00000001	      0.00000000	      0.00000000
      0.06000000	     13.79900955	      1.76897557	      4.75760781	     -1.06541407	      0.83932145	     -0.26963724	     15.34236512	     -2.73285026	    -24.28730338	     15.21492221	     -1.52805972	      0.26555049	     15.22021750	      3.00300308	     -8.81930019	    -26.60720733	      0.46965734	    -20.41434193	     10.06969910	      2.20719695	      0.17574940	     26.21946905	      9.22069672	     -8.81930019	    -28.11406466	     -0.02174391	     -1.14917625	    -14.83747108	     -4.01427118	    -13.68653251	     28.14236891	     90.00000001	      0.00000000	      0.00000000	     28.44022204	    -11.03389475	      3.16918009	     52.45221063	     90.00000001	      0.00000000	      0.00000000
      0.07000000	     13.65506273	      1.82279941	      4.79493305	     -1.05442793	      0.83805966	     -0.26897811	     15.49490860	     -2.86224746	    -24.53742550	     15.13759958	     -1.52103428	      0.26420095	     15.09751765	      2.92824238	     -8.81208458	    -27.05500575	      0.46432602	    -20.19362283	     10.49140362	      1.87453876	      0.18310954	     26.12678655	      9.27020830	     -8.81208458	    -27.90166334	      0.01148566	     -1.03571132	    -15.05196295	     -3.98695756	    -13.70289314	     28.00189642	     90.00000001	      0.00000000	      0.00000000	     28.54489918	    -10.89210176	      3.27284878	     52.78148849	     90.00000001	      0.00000000	      0.00000000
      0.08000000	     13.52700443	      1.83597944	      4.87812612	     -1.04315571	      0.83704651	     -0.26817185	     15.52955751	     -2.91286165	    -24.68675418	     15.27913445	     -1.60837711	      0.26667120	     14.95405606	      2.79890119	     -8.80633700	    -27.49365637	      0.36678008	    -19.96817435	     10.95793156	      1.53452848	      0.19125198	     25.99699468	      9.29749094	     -8.80633700	    -27.66793136	      0.10335786	     -1.01523347	    -15.17263740	     -3.94707067	    -13.72942243	     27.90697774	     90.00000001	      0.00000000	      0.00000000	     28.48519709	    -10.85451951	      3.38430174	     52.99180053	     90.00000001	      0.00000000	      0.00000000
      0.09000000	     13.62087497	      1.70174920	      5.37084724	     -1.03190663	      0.83660274	     -0.26736297	     15.34997164	     -2.95777957	    -26.06324111	     16.00691342	     -1.86983655	      0.27937334	     14.31286684	      1.69805321	     -8.78256137	    -27.87145610	     -0.25011543	    -19.78337826	     12.03042036	      1.21068200	      0.20997045	     25.51150241	      9.19436698	     -8.78256137	    -27.72776720	      0.48278339	     -1.29425925	    -15.05048101	     -3.83066629	    -13.98042605	     27.59838235	     90.00000001	      0.00000000	      0.00000000	     28.26758492	    -11.09899390	      3.98826761	     53.69448225	     90.00000001	      0.00000000	      0.00000000
      0.10000000	     13.50800203	      1.59068248	      5.39022786	     -1.02033502	      0.83607750	     -0.26630030	     15.25694644	     -2.80479904	    -26.11048014	     16.53715206	     -2.11646220	      0.28862775	     14.12600385	      1.37475651	     -8.77389479	    -28.17835826	     -0.43907068	    -19.40450536	     12.75923690	      0.77862107	      0.22269069	     25.25762868	      9.18984069	     -8.77389479	    -27.50729239	      0.69952650	     -1.13735123	    -15.02809832	     -3.87005815	    -14.04695627	     27.49839639	     90.00000001	      0.00000000	      0.00000000	     28.00130310	    -11.00912466	      4.09200612	     53.76563251	     90.00000001	      0.00000000	      0.00000000
